# xmcd
#
# Track frame offsets: 
#        150
#        7704
#        21675
#        37592
#        51666
#        66639
#        83620
#        103946
#        126338
#        147975
#        164058
#        180375
#        198815
#        210553
#
# Disc length: 2989 seconds
#
# Revision: 1
# Processed by: cddbd v1.5.2PL0 Copyright (c) Steve Scherf et al.
# Submitted via: ExactAudioCopy v0.99pb5
#
DISCID=c60bab0e
DTITLE=Opaali - Hinnalla Millä Hyvänsä
DYEAR=2010
DGENRE=Hip-Hop
TTITLE0=Hinnalla Millä Hyvänsä
TTITLE1=Raskaat Huvit (feat. Tykopaatti)
TTITLE2=Puutetta Massista (feat. Puukko-B)
TTITLE3=Varo
TTITLE4=Pisness (feat. Pyhimys)
TTITLE5=Kiukaat (feat. Idän Ihme)
TTITLE6=Sorilta (feat. Otto M, Juju and Hannibal)
TTITLE7=W.M.D. (feat. Aksim and Särre)
TTITLE8=Laitapuolen Kulkija (feat. Asa)
TTITLE9=Ryynityyli (feat. Kärppä)
TTITLE10=Kiiku Kaakun (feat. Tesoman Apteekkari)
TTITLE11=Osta, Myy, Vaihda
TTITLE12=Flippaa (feat. Juju)
TTITLE13=Ymmärrä
EXTD=
EXTT0=
EXTT1=
EXTT2=
EXTT3=
EXTT4=
EXTT5=
EXTT6=
EXTT7=
EXTT8=
EXTT9=
EXTT10=
EXTT11=
EXTT12=
EXTT13=
PLAYORDER=
